<svg xmlns="http://www.w3.org/2000/svg" xmlns:xlink="http://www.w3.org/1999/xlink" width="500" zoomAndPan="magnify" viewBox="0 0 375 374.999991" height="500" preserveAspectRatio="xMidYMid meet" version="1.0"><defs><g/><clipPath id="02b8ae8bf3"><path d="M 87.636719 49.257812 L 314.886719 49.257812 L 314.886719 233.007812 L 87.636719 233.007812 Z M 87.636719 49.257812 " clip-rule="nonzero"/></clipPath><clipPath id="bfae7caa09"><path d="M 123.359375 68 L 162 68 L 162 106.808594 L 123.359375 106.808594 Z M 123.359375 68 " clip-rule="nonzero"/></clipPath></defs><g clip-path="url(#02b8ae8bf3)"><path fill="#001d3d" d="M 147.371094 70.046875 C 139.464844 70.046875 133.03125 76.480469 133.03125 84.382812 C 133.03125 92.292969 139.464844 98.726562 147.371094 98.726562 C 155.28125 98.726562 161.714844 92.292969 161.714844 84.382812 C 161.714844 76.480469 155.28125 70.046875 147.371094 70.046875 Z M 147.371094 97.449219 C 140.167969 97.449219 134.3125 91.585938 134.3125 84.382812 C 134.3125 77.183594 140.167969 71.324219 147.371094 71.324219 C 154.574219 71.324219 160.429688 77.183594 160.429688 84.382812 C 160.429688 91.585938 154.574219 97.449219 147.371094 97.449219 Z M 271.15625 142.210938 C 271.160156 142.210938 271.160156 142.214844 271.160156 142.214844 C 271.195312 142.21875 271.234375 142.222656 271.269531 142.230469 C 271.234375 142.222656 271.195312 142.214844 271.15625 142.210938 Z M 247.035156 71.730469 C 247.027344 71.730469 247.027344 71.730469 247.027344 71.734375 C 247.097656 71.710938 247.164062 71.691406 247.234375 71.671875 C 247.164062 71.6875 247.101562 71.707031 247.035156 71.730469 Z M 244.835938 61.378906 C 244.722656 61.472656 244.609375 61.570312 244.5 61.664062 C 244.628906 61.554688 244.753906 61.449219 244.886719 61.34375 C 244.867188 61.351562 244.855469 61.363281 244.835938 61.378906 Z M 243.8125 62.257812 C 243.902344 62.179688 243.992188 62.101562 244.089844 62.019531 C 244.089844 62.011719 244.09375 62.011719 244.09375 62.007812 C 243.996094 62.089844 243.90625 62.171875 243.8125 62.257812 Z M 203.097656 70.429688 C 203.070312 70.445312 203.042969 70.453125 203.015625 70.46875 C 203.082031 70.441406 203.148438 70.414062 203.21875 70.390625 C 203.175781 70.402344 203.136719 70.417969 203.097656 70.429688 Z M 202.734375 70.578125 C 202.761719 70.566406 202.785156 70.558594 202.8125 70.550781 C 202.816406 70.542969 202.820312 70.542969 202.828125 70.539062 C 202.796875 70.554688 202.761719 70.5625 202.734375 70.578125 Z M 208.390625 76.679688 C 208.390625 76.683594 208.390625 76.683594 208.390625 76.683594 C 208.476562 76.730469 208.5625 76.769531 208.648438 76.804688 C 208.5625 76.765625 208.476562 76.726562 208.390625 76.679688 Z M 314.519531 132.695312 C 314.492188 132.507812 314.386719 132.339844 314.226562 132.234375 C 314.027344 132.109375 309.269531 129.148438 301.367188 129.671875 C 305.058594 124.269531 305.207031 119.695312 305.210938 119.492188 C 305.214844 119.300781 305.132812 119.117188 304.988281 118.992188 C 304.847656 118.867188 304.652344 118.8125 304.46875 118.84375 C 304.25 118.878906 299.0625 119.785156 293.839844 125.105469 C 291.996094 126.988281 290.949219 128.824219 290.375 130.429688 C 289.503906 128.769531 288.066406 126.921875 285.699219 125.167969 C 282.480469 122.792969 279.457031 121.589844 277.199219 120.976562 C 274.945312 120.367188 273.464844 120.355469 273.339844 120.355469 C 273.148438 120.355469 272.972656 120.441406 272.847656 120.585938 C 272.726562 120.726562 272.675781 120.921875 272.707031 121.109375 C 272.75 121.328125 273.675781 126.269531 278.613281 131.433594 C 277.882812 131.5 277.113281 131.609375 276.316406 131.773438 C 266.832031 133.726562 262.242188 139.160156 262.054688 139.390625 C 261.941406 139.527344 261.890625 139.707031 261.914062 139.886719 C 261.941406 140.0625 262.035156 140.222656 262.183594 140.324219 C 262.40625 140.480469 267.421875 143.886719 275.769531 143.886719 C 275.925781 143.886719 276.085938 143.882812 276.242188 143.878906 C 271.222656 150.421875 270.578125 156.042969 270.550781 156.304688 C 270.535156 156.5 270.601562 156.6875 270.742188 156.824219 C 270.859375 156.941406 271.023438 157.011719 271.1875 157.011719 C 271.214844 157.011719 271.242188 157.007812 271.269531 157.007812 C 271.535156 156.96875 277.71875 156.144531 284.570312 150.253906 C 283.289062 152.378906 282.1875 154.554688 281.234375 156.738281 C 281.195312 156.789062 281.152344 156.84375 281.128906 156.90625 C 281.101562 156.96875 281.089844 157.035156 281.078125 157.097656 C 280.078125 159.4375 279.246094 161.789062 278.5625 164.082031 C 278.53125 164.117188 278.503906 164.164062 278.484375 164.210938 C 278.445312 164.304688 278.429688 164.402344 278.4375 164.496094 C 276.472656 171.199219 275.726562 177.386719 275.449219 181.523438 C 275.433594 181.578125 275.421875 181.636719 275.421875 181.699219 C 275.421875 181.734375 275.425781 181.765625 275.429688 181.792969 C 275.238281 184.804688 275.304688 186.660156 275.304688 186.726562 L 275.304688 231.785156 L 261.332031 231.785156 L 261.332031 158.441406 C 261.335938 158.382812 261.445312 155.304688 261.140625 150.335938 L 261.140625 150.304688 C 261.140625 150.257812 261.136719 150.21875 261.128906 150.171875 C 260.828125 145.363281 260.132812 138.820312 258.585938 131.511719 C 257.988281 128.691406 257.230469 125.632812 256.28125 122.433594 C 256.273438 122.375 256.261719 122.316406 256.234375 122.261719 C 256.230469 122.246094 256.226562 122.238281 256.21875 122.226562 C 255.105469 118.507812 253.726562 114.601562 252.019531 110.648438 C 252.011719 110.59375 251.996094 110.535156 251.976562 110.480469 C 251.953125 110.421875 251.917969 110.371094 251.875 110.328125 C 250.378906 106.886719 248.628906 103.421875 246.589844 100.015625 C 246.574219 99.976562 246.558594 99.929688 246.535156 99.890625 C 246.503906 99.828125 246.457031 99.777344 246.410156 99.730469 C 245.941406 98.957031 245.453125 98.183594 244.957031 97.417969 C 245.242188 97.6875 245.53125 97.964844 245.832031 98.242188 C 257.261719 108.632812 267.839844 110.046875 268.285156 110.101562 C 268.304688 110.105469 268.332031 110.105469 268.359375 110.105469 C 268.527344 110.105469 268.6875 110.039062 268.808594 109.921875 C 268.945312 109.78125 269.019531 109.589844 268.996094 109.394531 C 268.957031 108.980469 267.894531 99.652344 259.40625 88.917969 C 259.9375 88.9375 260.464844 88.945312 260.980469 88.945312 C 274.308594 88.945312 282.300781 83.523438 282.660156 83.273438 C 282.804688 83.167969 282.90625 83.007812 282.925781 82.832031 C 282.953125 82.65625 282.898438 82.472656 282.785156 82.339844 C 282.480469 81.96875 275.175781 73.308594 260.019531 70.191406 C 258.433594 69.863281 256.945312 69.671875 255.527344 69.578125 C 263.917969 61.125 265.460938 52.898438 265.523438 52.539062 C 265.554688 52.351562 265.507812 52.164062 265.382812 52.015625 C 265.265625 51.871094 265.085938 51.785156 264.894531 51.785156 C 264.492188 51.785156 255.46875 51.878906 245.199219 59.476562 C 241.027344 62.5625 238.675781 65.824219 237.359375 68.65625 C 236.523438 65.921875 234.839844 62.675781 231.558594 59.328125 C 223.226562 50.832031 214.988281 49.402344 214.636719 49.34375 C 214.453125 49.316406 214.257812 49.367188 214.117188 49.492188 C 213.972656 49.621094 213.890625 49.800781 213.894531 49.992188 C 213.902344 50.328125 214.152344 57.96875 220.496094 66.867188 C 220.304688 66.855469 220.121094 66.832031 219.929688 66.820312 C 207.167969 65.90625 199.496094 70.679688 199.179688 70.886719 C 199.019531 70.984375 198.910156 71.152344 198.886719 71.339844 C 198.859375 71.523438 198.921875 71.714844 199.046875 71.855469 C 199.300781 72.132812 205.359375 78.617188 217.6875 81.113281 C 216.910156 81.734375 216.136719 82.414062 215.355469 83.167969 C 204.230469 93.925781 202.699219 105.152344 202.640625 105.625 C 202.617188 105.800781 202.671875 105.984375 202.785156 106.121094 C 202.902344 106.257812 203.066406 106.339844 203.25 106.347656 C 203.289062 106.347656 203.421875 106.351562 203.628906 106.351562 C 205.527344 106.351562 214.007812 105.984375 223.863281 99.972656 C 222.421875 113.644531 226.542969 122.128906 226.726562 122.507812 C 226.816406 122.683594 226.976562 122.808594 227.167969 122.847656 C 227.210938 122.859375 227.257812 122.863281 227.304688 122.863281 C 227.449219 122.863281 227.59375 122.808594 227.707031 122.714844 C 228.058594 122.433594 236.226562 115.574219 240.308594 100.675781 C 240.390625 100.375 240.460938 100.082031 240.535156 99.785156 C 246.160156 109.859375 249.253906 121.136719 250.9375 130.097656 C 253.644531 144.535156 253.410156 156.269531 253.40625 156.378906 L 250.5 231.785156 L 237.328125 231.785156 L 237.328125 150.789062 C 237.328125 150.535156 237.175781 150.304688 236.941406 150.199219 L 194.867188 132.09375 L 194.480469 131.929688 C 194.28125 131.84375 194.054688 131.863281 193.878906 131.980469 C 193.695312 132.101562 193.589844 132.304688 193.589844 132.515625 L 193.589844 133.667969 L 172.4375 146.769531 L 172.4375 159.742188 L 193.589844 147.910156 L 193.589844 149.378906 L 172.4375 161.207031 L 172.4375 169.703125 C 171.996094 169.664062 171.570312 169.621094 171.15625 169.589844 L 171.15625 146.058594 L 173.363281 144.691406 L 173.363281 135.464844 L 161.308594 130.417969 L 161.308594 231.785156 L 160.027344 231.785156 L 160.027344 129.882812 L 148.011719 124.859375 L 148.011719 231.785156 L 146.730469 231.785156 L 146.730469 124.324219 L 134.347656 119.144531 L 134.347656 231.785156 L 133.066406 231.785156 L 133.066406 118.609375 L 121.886719 113.933594 C 121.558594 113.796875 121.40625 113.421875 121.542969 113.09375 C 121.679688 112.769531 122.054688 112.613281 122.382812 112.75 L 133.953125 117.589844 C 133.957031 117.589844 133.957031 117.589844 133.957031 117.597656 L 174.25 134.449219 C 174.253906 134.449219 174.253906 134.449219 174.253906 134.449219 L 183.589844 138.355469 L 184.8125 137.597656 L 184.8125 133.71875 L 121.492188 106.46875 L 121.492188 107.085938 L 96.503906 122.570312 C 96.3125 122.683594 96.199219 122.890625 96.199219 123.113281 L 96.199219 231.785156 L 88.277344 231.785156 C 87.921875 231.785156 87.636719 232.074219 87.636719 232.421875 C 87.636719 232.777344 87.921875 233.066406 88.277344 233.066406 L 96.566406 233.066406 C 96.648438 233.105469 96.738281 233.132812 96.839844 233.132812 L 160.667969 233.132812 C 160.566406 233.132812 160.476562 233.105469 160.390625 233.066406 L 160.9375 233.066406 C 160.855469 233.105469 160.761719 233.132812 160.667969 233.132812 L 184.8125 233.132812 L 184.8125 233.125 L 236.6875 233.125 C 236.78125 233.125 236.875 233.105469 236.953125 233.066406 L 287.222656 233.066406 C 287.578125 233.066406 287.863281 232.78125 287.863281 232.429688 C 287.863281 232.074219 287.578125 231.785156 287.222656 231.785156 L 282.492188 231.785156 L 280.707031 185.46875 C 280.703125 185.230469 280.375 165.8125 288.363281 151.019531 C 290.917969 160.304688 296.03125 164.597656 296.246094 164.773438 C 296.363281 164.871094 296.507812 164.925781 296.652344 164.925781 C 296.699219 164.925781 296.746094 164.921875 296.785156 164.90625 C 296.976562 164.867188 297.140625 164.742188 297.226562 164.566406 C 297.34375 164.335938 299.828125 159.207031 299.070312 150.9375 C 305.0625 154.464844 310.175781 154.683594 311.34375 154.683594 C 311.472656 154.683594 311.554688 154.679688 311.582031 154.679688 C 311.757812 154.675781 311.925781 154.585938 312.046875 154.453125 C 312.160156 154.316406 312.214844 154.140625 312.191406 153.957031 C 312.15625 153.660156 311.191406 146.621094 304.230469 139.886719 C 303.875 139.535156 303.511719 139.21875 303.152344 138.914062 C 310.542969 137.28125 314.199219 133.378906 314.355469 133.210938 C 314.480469 133.070312 314.542969 132.878906 314.519531 132.695312 Z M 121.492188 231.785156 L 97.480469 231.785156 L 97.480469 220.574219 L 121.492188 206.582031 Z M 121.492188 205.101562 L 97.480469 219.089844 L 97.480469 205.953125 L 121.492188 191.964844 Z M 121.492188 190.480469 L 97.480469 204.476562 L 97.480469 192.664062 L 121.492188 178.675781 Z M 121.492188 177.191406 L 97.480469 191.183594 L 97.480469 179.960938 L 121.492188 165.972656 Z M 121.492188 164.488281 L 97.480469 178.484375 L 97.480469 167.097656 L 121.492188 153.109375 Z M 121.492188 151.625 L 97.480469 165.613281 L 97.480469 154.179688 L 121.492188 140.183594 Z M 121.492188 138.707031 L 97.480469 152.695312 L 97.480469 141.316406 L 121.492188 127.320312 Z M 121.492188 125.839844 L 97.480469 139.832031 L 97.480469 128.957031 L 121.492188 114.472656 Z M 121.492188 112.980469 L 97.480469 127.460938 L 97.480469 123.46875 L 121.492188 108.59375 Z M 180.363281 231.847656 L 165.175781 231.847656 L 165.175781 215.859375 C 167.050781 215.929688 172.875 216.277344 180.363281 218.09375 Z M 180.363281 216.78125 C 172.859375 214.988281 167.046875 214.644531 165.175781 214.578125 L 165.175781 205.222656 C 166.757812 205.242188 172.53125 205.433594 180.363281 207.125 Z M 180.363281 205.78125 C 172.582031 204.136719 166.789062 203.957031 165.175781 203.945312 L 165.175781 193.457031 C 166.757812 193.476562 172.539062 193.667969 180.363281 195.359375 Z M 180.363281 194.011719 C 172.582031 192.371094 166.789062 192.191406 165.175781 192.179688 L 165.175781 181.847656 C 167.015625 181.878906 172.734375 182.113281 180.363281 183.761719 Z M 180.363281 182.414062 C 172.777344 180.8125 167.042969 180.589844 165.175781 180.5625 L 165.175781 170.609375 C 167.027344 170.597656 172.878906 170.703125 180.363281 172.152344 Z M 193.589844 164.054688 L 193.589844 164.058594 C 193.480469 164.125 193.386719 164.230469 193.339844 164.359375 C 193.226562 164.648438 193.339844 164.96875 193.589844 165.132812 L 193.589844 165.519531 L 183.058594 171.410156 C 182.417969 171.265625 181.785156 171.132812 181.160156 171.003906 Z M 199.441406 231.847656 L 181.644531 231.847656 L 181.644531 218.414062 C 187.078125 219.824219 193.28125 221.996094 199.441406 225.355469 Z M 199.441406 223.898438 C 193.257812 220.605469 187.0625 218.480469 181.644531 217.101562 L 181.644531 207.410156 C 186.945312 208.636719 193.078125 210.542969 199.441406 213.515625 Z M 199.441406 212.09375 C 193.832031 209.507812 188.554688 207.792969 184.140625 206.664062 C 183.292969 206.445312 182.460938 206.246094 181.644531 206.0625 L 181.644531 195.644531 C 186.945312 196.871094 193.078125 198.78125 199.441406 201.753906 Z M 199.441406 200.324219 C 193.832031 197.742188 188.554688 196.027344 184.140625 194.894531 C 183.292969 194.679688 182.457031 194.480469 181.644531 194.292969 L 181.644531 184.046875 C 186.953125 185.273438 193.089844 187.171875 199.441406 190.121094 Z M 199.441406 188.699219 C 193.820312 186.117188 188.515625 184.40625 184.082031 183.28125 C 183.25 183.066406 182.4375 182.875 181.644531 182.695312 L 181.644531 172.410156 C 182.953125 172.683594 184.292969 172.996094 185.679688 173.359375 C 189.816406 174.449219 194.578125 176.066406 199.441406 178.453125 Z M 200.722656 231.847656 L 200.722656 226.066406 C 203.597656 227.714844 206.453125 229.625 209.203125 231.847656 Z M 213.679688 231.847656 L 211.210938 231.847656 C 207.835938 228.980469 204.292969 226.59375 200.722656 224.597656 L 200.722656 214.128906 C 205.023438 216.222656 209.402344 218.816406 213.679688 222.019531 Z M 213.679688 220.425781 C 209.347656 217.265625 204.953125 214.730469 200.722656 212.695312 L 200.722656 202.359375 C 205.023438 204.460938 209.402344 207.046875 213.679688 210.246094 Z M 213.679688 208.65625 C 209.347656 205.496094 204.953125 202.960938 200.722656 200.925781 L 200.722656 190.730469 C 205.023438 192.816406 209.40625 195.394531 213.679688 198.578125 Z M 213.679688 196.988281 C 209.351562 193.84375 204.960938 191.320312 200.722656 189.296875 L 200.722656 179.097656 C 205.117188 181.371094 209.566406 184.289062 213.679688 188.035156 Z M 221.242188 231.847656 L 214.960938 231.847656 L 214.960938 222.992188 C 217.09375 224.664062 219.195312 226.480469 221.242188 228.472656 Z M 221.242188 226.703125 C 219.183594 224.765625 217.085938 222.992188 214.960938 221.378906 L 214.960938 211.226562 C 217.09375 212.894531 219.195312 214.710938 221.242188 216.703125 Z M 221.242188 214.933594 C 219.183594 212.996094 217.085938 211.226562 214.960938 209.613281 L 214.960938 199.550781 C 217.09375 201.214844 219.195312 203.023438 221.242188 205.011719 Z M 221.242188 203.242188 C 219.191406 201.308594 217.085938 199.546875 214.960938 197.9375 L 214.960938 189.238281 C 217.1875 191.398438 219.304688 193.8125 221.242188 196.515625 Z M 236.046875 231.785156 L 222.523438 231.785156 L 222.523438 212.0625 L 236.046875 217.390625 Z M 236.046875 216.015625 L 222.523438 210.6875 L 222.523438 196.3125 C 222.523438 196.179688 222.480469 196.050781 222.402344 195.941406 C 221.855469 195.167969 221.285156 194.421875 220.707031 193.6875 L 236.046875 199.734375 Z M 236.046875 198.359375 L 219.003906 191.644531 C 217.664062 190.113281 216.277344 188.683594 214.84375 187.363281 C 214.789062 187.285156 214.71875 187.226562 214.644531 187.183594 C 208.371094 181.445312 201.355469 177.597656 194.867188 175.027344 L 194.867188 165.652344 L 236.046875 181.875 Z M 236.046875 180.5 L 194.867188 164.269531 L 194.867188 149.230469 L 236.046875 165.453125 Z M 236.046875 164.070312 L 194.867188 147.847656 L 194.867188 133.492188 L 236.046875 151.210938 Z M 259.8125 149.664062 L 254.523438 149.664062 C 254.371094 146.667969 254.082031 142.839844 253.539062 138.507812 L 258.390625 137.402344 C 259.160156 142.082031 259.585938 146.28125 259.8125 149.664062 Z M 233.941406 80.753906 C 233.964844 80.742188 233.984375 80.722656 234 80.710938 C 233.976562 80.726562 233.957031 80.746094 233.933594 80.769531 C 233.9375 80.761719 233.9375 80.757812 233.941406 80.753906 Z M 229.820312 85.476562 C 229.808594 85.496094 229.800781 85.515625 229.785156 85.53125 C 229.792969 85.515625 229.808594 85.496094 229.816406 85.476562 Z M 227.835938 89.152344 L 227.839844 89.152344 C 227.796875 89.246094 227.757812 89.339844 227.714844 89.429688 C 227.753906 89.339844 227.792969 89.246094 227.835938 89.152344 Z M 249.851562 71.105469 L 249.832031 71.105469 C 249.84375 71.101562 249.847656 71.101562 249.855469 71.101562 C 249.855469 71.105469 249.851562 71.105469 249.851562 71.105469 Z M 239.460938 75.746094 C 239.441406 75.757812 239.417969 75.777344 239.402344 75.792969 C 239.402344 75.789062 239.402344 75.789062 239.402344 75.789062 C 239.417969 75.773438 239.4375 75.757812 239.460938 75.746094 Z M 246.574219 60.058594 C 246.597656 60.042969 246.621094 60.027344 246.644531 60.011719 C 246.621094 60.03125 246.597656 60.042969 246.574219 60.0625 C 246.539062 60.085938 246.507812 60.109375 246.476562 60.128906 C 246.507812 60.109375 246.539062 60.082031 246.574219 60.058594 Z M 242.101562 63.957031 L 242.105469 63.957031 C 242.03125 64.039062 241.957031 64.117188 241.878906 64.207031 C 241.953125 64.125 242.023438 64.039062 242.101562 63.957031 Z M 212.152344 68.242188 L 212.148438 68.25 C 212.09375 68.253906 212.035156 68.257812 211.980469 68.265625 C 212.035156 68.261719 212.09375 68.253906 212.152344 68.242188 Z M 209.273438 68.679688 L 209.269531 68.683594 C 209.234375 68.6875 209.203125 68.691406 209.167969 68.703125 C 209.203125 68.691406 209.238281 68.6875 209.273438 68.679688 Z M 201.742188 71.003906 C 201.691406 71.023438 201.644531 71.046875 201.59375 71.070312 C 201.613281 71.0625 201.644531 71.046875 201.664062 71.035156 C 201.691406 71.023438 201.714844 71.015625 201.742188 71.003906 Z M 200.769531 71.460938 C 200.777344 71.460938 200.777344 71.460938 200.78125 71.460938 C 200.742188 71.480469 200.707031 71.496094 200.675781 71.511719 C 200.707031 71.496094 200.738281 71.480469 200.769531 71.460938 Z M 205.277344 75.007812 C 205.183594 74.949219 205.089844 74.890625 205 74.835938 C 205.207031 74.964844 205.421875 75.097656 205.640625 75.222656 C 205.519531 75.15625 205.394531 75.082031 205.277344 75.007812 Z M 240.957031 97.949219 C 241.1875 96.777344 241.347656 95.664062 241.453125 94.597656 C 242.742188 96.355469 243.9375 98.152344 245.050781 99.960938 L 242.753906 101.210938 C 242.183594 100.109375 241.582031 99.019531 240.957031 97.949219 Z M 243.335938 102.347656 L 245.71875 101.0625 C 247.546875 104.152344 249.132812 107.292969 250.519531 110.410156 L 247.34375 111.769531 C 246.203125 108.621094 244.878906 105.449219 243.335938 102.347656 Z M 250.902344 123.816406 C 250.082031 120.351562 249.050781 116.6875 247.769531 112.980469 L 251.03125 111.582031 C 252.566406 115.183594 253.828125 118.738281 254.859375 122.148438 Z M 253.371094 137.230469 C 253.058594 134.898438 252.675781 132.433594 252.199219 129.890625 C 251.90625 128.351562 251.574219 126.738281 251.199219 125.082031 L 255.230469 123.382812 C 256.082031 126.324219 256.777344 129.136719 257.328125 131.746094 C 257.648438 133.242188 257.925781 134.710938 258.171875 136.136719 Z M 260.050781 231.785156 L 251.785156 231.785156 L 252.269531 219.097656 L 260.050781 219.097656 Z M 260.050781 217.816406 L 252.320312 217.816406 L 253.011719 199.9375 L 259.960938 199.9375 C 259.992188 199.9375 260.023438 199.933594 260.050781 199.929688 Z M 260.050781 198.667969 C 260.023438 198.664062 259.992188 198.660156 259.960938 198.660156 L 253.058594 198.660156 L 253.695312 182.148438 L 260.050781 182.148438 Z M 260.050781 180.867188 L 253.746094 180.867188 L 254.402344 163.734375 L 260.050781 163.734375 Z M 260.050781 158.417969 L 260.050781 162.457031 L 254.453125 162.457031 L 254.683594 156.421875 C 254.683594 156.371094 254.726562 154.332031 254.585938 150.945312 L 259.894531 150.945312 C 260.15625 155.527344 260.054688 158.34375 260.050781 158.417969 Z M 276.6875 126.953125 C 276.714844 127 276.746094 127.042969 276.777344 127.085938 C 276.753906 127.058594 276.734375 127.027344 276.714844 127 C 276.707031 126.984375 276.695312 126.972656 276.6875 126.953125 Z M 277.597656 173.996094 L 280.136719 174.570312 C 279.828125 177.074219 279.652344 179.285156 279.550781 181.0625 L 276.765625 181.0625 C 276.910156 179.078125 277.164062 176.671875 277.597656 173.996094 Z M 280.050781 201.691406 L 280.425781 211.441406 L 276.582031 211.441406 L 276.582031 201.691406 Z M 276.582031 200.410156 L 276.582031 190.273438 L 279.609375 190.273438 L 280 200.410156 Z M 276.683594 182.339844 L 279.488281 182.339844 C 279.40625 184.28125 279.429688 185.449219 279.429688 185.507812 L 279.5625 188.992188 L 276.582031 188.992188 L 276.582031 186.703125 C 276.582031 186.636719 276.527344 185.003906 276.683594 182.339844 Z M 281.210938 231.785156 L 276.582031 231.785156 L 276.582031 224.605469 L 280.933594 224.605469 Z M 280.886719 223.324219 L 276.582031 223.324219 L 276.582031 212.726562 L 280.476562 212.726562 Z M 280.308594 173.300781 L 277.8125 172.734375 C 278.230469 170.414062 278.785156 167.917969 279.519531 165.34375 L 281.582031 166.214844 C 281.027344 168.699219 280.613281 171.089844 280.308594 173.300781 Z M 281.875 164.949219 L 279.882812 164.109375 C 280.496094 162.101562 281.222656 160.054688 282.078125 158.007812 L 283.679688 158.695312 C 282.964844 160.789062 282.367188 162.890625 281.875 164.949219 Z M 284.101562 157.484375 L 282.585938 156.832031 C 283.957031 153.753906 285.640625 150.695312 287.710938 147.800781 C 287.765625 148.25 287.835938 148.707031 287.933594 149.183594 C 286.394531 151.828125 285.136719 154.640625 284.101562 157.484375 Z M 174.644531 136 L 174.644531 143.898438 L 182.253906 139.183594 Z M 174.644531 136 " fill-opacity="1" fill-rule="nonzero"/></g><path fill="#ffffff" d="M 235.78125 74.226562 C 235.875 73.296875 236.085938 72.109375 236.527344 70.757812 C 235.980469 67.894531 234.464844 64.121094 230.644531 60.226562 C 224.105469 53.558594 217.503906 51.378906 215.246094 50.792969 C 215.507812 53.082031 216.71875 59.777344 222.226562 67.066406 C 229.957031 68.203125 233.992188 71.949219 235.78125 74.226562 Z M 235.078125 75.445312 C 233.484375 73.285156 229.078125 68.753906 219.835938 68.097656 C 209.660156 67.371094 202.742188 70.4375 200.582031 71.5625 C 202.378906 73.210938 208.277344 77.980469 218.269531 79.925781 C 218.539062 79.980469 218.800781 80.023438 219.0625 80.066406 C 225.65625 75.351562 231.699219 75.074219 235.078125 75.445312 Z M 237.003906 75.765625 C 237.148438 75.796875 237.273438 75.828125 237.382812 75.859375 C 237.40625 75.863281 237.433594 75.867188 237.460938 75.871094 C 238.722656 74.484375 243.996094 69.460938 253.769531 69.515625 C 261.046875 62.5625 263.445312 55.457031 264.074219 53.113281 C 261.644531 53.324219 254.144531 54.453125 245.960938 60.503906 C 237.496094 66.761719 236.980469 73.894531 237.003906 75.765625 Z M 238.582031 76.558594 C 242.042969 76.589844 249.785156 77.800781 257.582031 86.722656 C 257.835938 87.011719 258.078125 87.300781 258.320312 87.589844 C 270.679688 88.261719 279.027344 83.953125 281.304688 82.609375 C 279.433594 80.664062 272.296875 74.023438 259.761719 71.445312 C 247.21875 68.863281 240.28125 74.828125 238.582031 76.558594 Z M 204.039062 105.058594 C 206.5 104.976562 214.804688 104.242188 224.0625 98.335938 C 224.109375 97.972656 224.160156 97.613281 224.214844 97.246094 C 226.367188 83.277344 234.332031 78.609375 236.109375 77.730469 C 236.144531 77.421875 236.179688 77.230469 236.1875 77.179688 C 236.207031 77.089844 236.246094 77.011719 236.296875 76.9375 C 235.53125 76.796875 234.421875 76.652344 233.035156 76.652344 C 228.980469 76.652344 222.648438 77.894531 216.242188 84.089844 C 207.027344 93 204.570312 102.414062 204.039062 105.058594 Z M 256.617188 87.566406 C 248.058594 77.773438 239.449219 77.730469 237.386719 77.882812 C 237.386719 77.910156 237.382812 77.945312 237.378906 77.972656 C 238.285156 79.054688 241.59375 83.558594 241.605469 91.535156 C 242.886719 93.402344 244.546875 95.34375 246.695312 97.296875 C 255.980469 105.734375 264.859375 108.113281 267.585938 108.675781 C 267.078125 105.9375 264.871094 97.011719 256.617188 87.566406 Z M 236.527344 78.960938 C 234.707031 79.9375 227.460938 84.582031 225.480469 97.441406 C 223.574219 109.839844 226.492188 118.558594 227.53125 121.144531 C 229.535156 119.207031 235.757812 112.4375 239.074219 100.339844 C 242.511719 87.792969 237.789062 80.597656 236.527344 78.960938 Z M 291.5625 133.941406 C 292.832031 132.5 295.316406 130.515625 299.660156 129.851562 C 302.742188 125.742188 303.605469 121.953125 303.84375 120.3125 C 302.222656 120.785156 298.472656 122.210938 294.753906 126.003906 C 292.441406 128.359375 291.511719 130.605469 291.167969 132.316406 C 291.363281 132.914062 291.484375 133.460938 291.5625 133.941406 Z M 301.300781 130.957031 C 296.148438 131.324219 293.507812 133.585938 292.351562 134.984375 C 294.542969 134.84375 298.035156 135.207031 301.8125 137.878906 C 301.945312 137.855469 302.074219 137.839844 302.207031 137.8125 C 307.921875 136.699219 311.453125 134.085938 312.796875 132.921875 C 311.199219 132.148438 307.109375 130.542969 301.300781 130.957031 Z M 290.398438 135.230469 C 290.378906 133.839844 289.859375 129.839844 284.9375 126.203125 C 280.238281 122.726562 275.9375 121.894531 274.179688 121.699219 C 274.679688 123.375 276.230469 127.394531 280.339844 131.347656 C 286.132812 131.351562 289.402344 134.195312 290.398438 135.230469 Z M 277.691406 142.105469 C 282.195312 136.953125 286.691406 135.894531 289.09375 135.742188 C 287.621094 134.398438 283.570312 131.589844 276.570312 133.027344 C 269.265625 134.53125 264.964844 138.253906 263.554688 139.660156 C 265.246094 140.605469 270.195312 142.921875 277.304688 142.558594 C 277.433594 142.410156 277.558594 142.257812 277.691406 142.105469 Z M 303.34375 140.808594 C 298.273438 135.902344 293.40625 136.039062 291.394531 136.375 C 291.398438 136.414062 291.40625 136.464844 291.417969 136.53125 C 292.753906 137.230469 297.503906 140.269531 298.808594 148.753906 C 298.835938 148.945312 298.863281 149.128906 298.886719 149.3125 C 304.199219 152.675781 308.980469 153.28125 310.777344 153.382812 C 310.335938 151.4375 308.691406 145.976562 303.34375 140.808594 Z M 289.96875 137 C 289.902344 136.996094 289.828125 136.996094 289.746094 136.996094 C 287.867188 136.996094 283.3125 137.621094 278.65625 142.949219 C 273.890625 148.398438 272.402344 153.5625 271.980469 155.5625 C 273.972656 155.101562 279.105469 153.511719 284.464844 148.644531 C 285.757812 147.46875 286.757812 146.304688 287.542969 145.191406 C 287.5625 140.769531 289.195312 138.042969 289.96875 137 Z M 297.542969 148.949219 C 296.382812 141.40625 292.3125 138.511719 290.996094 137.761719 C 290.085938 138.984375 287.554688 143.234375 289.585938 150.644531 C 291.507812 157.648438 294.984375 161.726562 296.417969 163.179688 C 297.132812 161.265625 298.644531 156.105469 297.542969 148.949219 Z M 297.542969 148.949219 " fill-opacity="1" fill-rule="nonzero"/><g clip-path="url(#bfae7caa09)"><path fill="#022b60" d="M 123.453125 75.53125 L 125.023438 73.878906 C 125.941406 72.957031 127.492188 73.277344 127.492188 73.277344 L 132.085938 73.90625 L 134.414062 71.628906 C 135.640625 70.425781 136.75 72.265625 136.265625 72.902344 L 135.074219 74.292969 L 140.023438 75.207031 L 141.703125 73.25 C 143.496094 71.101562 144.835938 73.039062 144.023438 74.175781 L 142.9375 75.550781 L 150.375 76.519531 C 156.769531 70.367188 159.382812 67.8125 161.0625 69.328125 C 162.757812 70.855469 159.761719 73.898438 153.9375 79.898438 L 154.992188 87.5625 L 156.550781 86.261719 C 157.472656 85.496094 159.105469 86.726562 157.417969 88.324219 L 155.273438 90.34375 L 156.179688 95.359375 L 157.519531 94.332031 C 158.699219 93.390625 160.136719 94.636719 158.539062 96.34375 L 156.410156 98.484375 C 156.324219 98.550781 157.105469 102.886719 157.105469 102.886719 C 157.585938 105.007812 156.386719 105.785156 156.386719 105.785156 L 154.925781 107.058594 L 149.378906 91.378906 C 148.917969 90 147.75 88.503906 145.804688 88.679688 C 144.773438 88.789062 142.175781 90.546875 141.824219 90.960938 L 135.804688 96.75 C 135.652344 96.859375 136.730469 104.273438 136.730469 104.273438 C 136.730469 104.492188 134.820312 106.996094 134.820312 106.996094 L 131.007812 100.207031 L 129.125 101.082031 L 130.226562 99.367188 L 123.359375 95.492188 L 125.933594 93.609375 C 127.160156 93.894531 133.589844 94.617188 133.722656 94.550781 C 133.722656 94.550781 138.957031 89.355469 139.257812 89.042969 C 140.984375 87.226562 141.566406 86.546875 141.832031 85.648438 C 142.09375 84.75 141.644531 83.433594 138.929688 81.765625 C 135.1875 79.464844 123.453125 75.53125 123.453125 75.53125 Z M 123.453125 75.53125 " fill-opacity="1" fill-rule="nonzero"/></g><g fill="#001d3d" fill-opacity="1"><g transform="translate(40.85147, 278.64171)"><g><path d="M 11.03125 -0.25 C 12.15625 -1.769531 12.71875 -3.804688 12.71875 -6.359375 L 12.71875 -32.78125 L 10.921875 -32.78125 C 8.429688 -32.78125 6.34375 -32.039062 4.65625 -30.5625 C 2.976562 -29.09375 1.539062 -27 0.34375 -24.28125 L -0.140625 -24.28125 L 1.0625 -34 L 31.46875 -34 L 32.640625 -24.28125 L 32.140625 -24.28125 C 30.984375 -27 29.5625 -29.09375 27.875 -30.5625 C 26.1875 -32.039062 24.082031 -32.78125 21.5625 -32.78125 L 19.765625 -32.78125 L 19.765625 -6.359375 C 19.765625 -3.804688 20.332031 -1.769531 21.46875 -0.25 L 21.46875 0 L 11.03125 0 Z M 11.03125 -0.25 "/></g></g></g><g fill="#001d3d" fill-opacity="1"><g transform="translate(71.882638, 278.64171)"><g><path d="M 3.0625 -0.25 C 3.476562 -0.863281 3.804688 -1.644531 4.046875 -2.59375 C 4.296875 -3.550781 4.421875 -4.597656 4.421875 -5.734375 L 4.421875 -16.609375 C 4.421875 -17.929688 4.273438 -19.003906 3.984375 -19.828125 C 3.691406 -20.660156 3.253906 -21.367188 2.671875 -21.953125 L 2.671875 -22.1875 L 10.734375 -24.90625 L 10.96875 -24.90625 L 10.96875 -18.265625 L 11.21875 -18.265625 C 11.769531 -20.398438 12.71875 -22.039062 14.0625 -23.1875 C 15.40625 -24.332031 17.289062 -24.90625 19.71875 -24.90625 L 19.71875 -18.84375 L 16.90625 -18.84375 C 14.863281 -18.84375 13.363281 -18.421875 12.40625 -17.578125 C 11.445312 -16.734375 10.96875 -15.3125 10.96875 -13.3125 L 10.96875 -5.734375 C 10.96875 -4.597656 11.085938 -3.550781 11.328125 -2.59375 C 11.578125 -1.644531 11.910156 -0.863281 12.328125 -0.25 L 12.328125 0 L 3.0625 0 Z M 3.0625 -0.25 "/></g></g></g><g fill="#001d3d" fill-opacity="1"><g transform="translate(90.578941, 278.64171)"><g><path d="M 14.125 0.625 C 11.726562 0.625 9.59375 0.078125 7.71875 -1.015625 C 5.84375 -2.117188 4.378906 -3.632812 3.328125 -5.5625 C 2.273438 -7.488281 1.75 -9.679688 1.75 -12.140625 C 1.75 -14.597656 2.273438 -16.789062 3.328125 -18.71875 C 4.378906 -20.644531 5.84375 -22.15625 7.71875 -23.25 C 9.59375 -24.351562 11.726562 -24.90625 14.125 -24.90625 C 16.488281 -24.90625 18.609375 -24.351562 20.484375 -23.25 C 22.367188 -22.15625 23.835938 -20.644531 24.890625 -18.71875 C 25.941406 -16.789062 26.46875 -14.597656 26.46875 -12.140625 C 26.46875 -9.679688 25.941406 -7.488281 24.890625 -5.5625 C 23.835938 -3.632812 22.367188 -2.117188 20.484375 -1.015625 C 18.609375 0.078125 16.488281 0.625 14.125 0.625 Z M 14.125 -0.484375 C 15.90625 -0.484375 17.234375 -1.539062 18.109375 -3.65625 C 18.984375 -5.78125 19.421875 -8.609375 19.421875 -12.140625 C 19.421875 -15.671875 18.984375 -18.492188 18.109375 -20.609375 C 17.234375 -22.734375 15.90625 -23.796875 14.125 -23.796875 C 12.34375 -23.796875 11.007812 -22.734375 10.125 -20.609375 C 9.238281 -18.492188 8.796875 -15.671875 8.796875 -12.140625 C 8.796875 -8.609375 9.238281 -5.78125 10.125 -3.65625 C 11.007812 -1.539062 12.34375 -0.484375 14.125 -0.484375 Z M 14.125 -0.484375 "/></g></g></g><g fill="#001d3d" fill-opacity="1"><g transform="translate(117.336611, 278.64171)"><g><path d="M 2.8125 9.46875 C 3.238281 8.851562 3.570312 8.066406 3.8125 7.109375 C 4.050781 6.160156 4.171875 5.117188 4.171875 3.984375 L 4.171875 -16.609375 C 4.171875 -17.929688 4.023438 -19.003906 3.734375 -19.828125 C 3.441406 -20.660156 3.003906 -21.367188 2.421875 -21.953125 L 2.421875 -22.1875 L 10.484375 -24.90625 L 10.734375 -24.90625 L 10.734375 -20.546875 L 10.96875 -20.546875 C 11.75 -21.898438 12.757812 -22.960938 14 -23.734375 C 15.25 -24.515625 16.671875 -24.90625 18.265625 -24.90625 C 20.234375 -24.90625 21.960938 -24.421875 23.453125 -23.453125 C 24.941406 -22.484375 26.09375 -21.097656 26.90625 -19.296875 C 27.71875 -17.503906 28.125 -15.425781 28.125 -13.0625 C 28.125 -10.375 27.597656 -7.992188 26.546875 -5.921875 C 25.492188 -3.847656 24.082031 -2.238281 22.3125 -1.09375 C 20.550781 0.0507812 18.632812 0.625 16.5625 0.625 C 14.132812 0.625 12.191406 0.0234375 10.734375 -1.171875 L 10.734375 3.984375 C 10.734375 5.117188 10.851562 6.160156 11.09375 7.109375 C 11.332031 8.066406 11.664062 8.851562 12.09375 9.46875 L 12.09375 9.71875 L 2.8125 9.71875 Z M 15.59375 -0.78125 C 17.34375 -0.78125 18.707031 -1.734375 19.6875 -3.640625 C 20.675781 -5.546875 21.171875 -8.21875 21.171875 -11.65625 C 21.171875 -14.726562 20.644531 -17.140625 19.59375 -18.890625 C 18.539062 -20.640625 17.140625 -21.515625 15.390625 -21.515625 C 14.128906 -21.515625 13.078125 -21.132812 12.234375 -20.375 C 11.390625 -19.613281 10.890625 -18.632812 10.734375 -17.4375 L 10.734375 -5.734375 C 10.890625 -4.398438 11.394531 -3.238281 12.25 -2.25 C 13.113281 -1.269531 14.226562 -0.78125 15.59375 -0.78125 Z M 15.59375 -0.78125 "/></g></g></g><g fill="#001d3d" fill-opacity="1"><g transform="translate(145.891094, 278.64171)"><g><path d="M 3.0625 -0.25 C 3.476562 -0.863281 3.804688 -1.644531 4.046875 -2.59375 C 4.296875 -3.550781 4.421875 -4.597656 4.421875 -5.734375 L 4.421875 -16.609375 C 4.421875 -17.929688 4.273438 -19.003906 3.984375 -19.828125 C 3.691406 -20.660156 3.253906 -21.367188 2.671875 -21.953125 L 2.671875 -22.1875 L 10.734375 -24.90625 L 10.96875 -24.90625 L 10.96875 -5.734375 C 10.96875 -4.597656 11.085938 -3.550781 11.328125 -2.59375 C 11.578125 -1.644531 11.910156 -0.863281 12.328125 -0.25 L 12.328125 0 L 3.0625 0 Z M 7.671875 -27.6875 C 6.566406 -27.6875 5.640625 -28.054688 4.890625 -28.796875 C 4.148438 -29.546875 3.78125 -30.46875 3.78125 -31.5625 C 3.78125 -32.664062 4.148438 -33.585938 4.890625 -34.328125 C 5.640625 -35.078125 6.566406 -35.453125 7.671875 -35.453125 C 8.773438 -35.453125 9.695312 -35.078125 10.4375 -34.328125 C 11.1875 -33.585938 11.5625 -32.664062 11.5625 -31.5625 C 11.5625 -30.46875 11.1875 -29.546875 10.4375 -28.796875 C 9.695312 -28.054688 8.773438 -27.6875 7.671875 -27.6875 Z M 7.671875 -27.6875 "/></g></g></g><g fill="#001d3d" fill-opacity="1"><g transform="translate(159.488334, 278.64171)"><g><path d="M 2.8125 -0.25 C 3.238281 -0.863281 3.570312 -1.644531 3.8125 -2.59375 C 4.050781 -3.550781 4.171875 -4.597656 4.171875 -5.734375 L 4.171875 -27.875 C 4.171875 -29.195312 4.023438 -30.28125 3.734375 -31.125 C 3.441406 -31.96875 3.003906 -32.664062 2.421875 -33.21875 L 2.421875 -33.453125 L 10.484375 -36.171875 L 10.734375 -36.171875 L 10.734375 -5.734375 C 10.734375 -4.597656 10.851562 -3.550781 11.09375 -2.59375 C 11.332031 -1.644531 11.664062 -0.863281 12.09375 -0.25 L 12.09375 0 L 2.8125 0 Z M 24.328125 0.390625 C 22.804688 0.390625 21.550781 0.113281 20.5625 -0.4375 C 19.570312 -0.988281 18.625 -1.894531 17.71875 -3.15625 L 11.703125 -11.359375 L 11.703125 -11.609375 L 17.671875 -18.453125 C 18.941406 -19.910156 19.578125 -21.15625 19.578125 -22.1875 C 19.578125 -22.9375 19.300781 -23.550781 18.75 -24.03125 L 18.75 -24.28125 L 26.171875 -24.28125 L 26.171875 -24.03125 C 24.816406 -23.382812 23.644531 -22.6875 22.65625 -21.9375 C 21.664062 -21.195312 20.601562 -20.210938 19.46875 -18.984375 L 16.5625 -15.828125 L 25.78125 -3.40625 C 26.882812 -1.914062 27.710938 -1.070312 28.265625 -0.875 L 28.265625 -0.53125 C 27.742188 -0.269531 27.125 -0.0507812 26.40625 0.125 C 25.695312 0.300781 25.003906 0.390625 24.328125 0.390625 Z M 24.328125 0.390625 "/></g></g></g><g fill="#001d3d" fill-opacity="1"><g transform="translate(185.954636, 278.64171)"><g><path d="M 24.90625 -1.703125 C 24.519531 -0.984375 23.894531 -0.414062 23.03125 0 C 22.175781 0.414062 21.21875 0.625 20.15625 0.625 C 18.789062 0.625 17.695312 0.3125 16.875 -0.3125 C 16.050781 -0.945312 15.554688 -1.8125 15.390625 -2.90625 L 15.34375 -3.109375 L 15.203125 -3.109375 C 14.554688 -1.972656 13.671875 -1.066406 12.546875 -0.390625 C 11.429688 0.285156 10.035156 0.625 8.359375 0.625 C 6.378906 0.625 4.832031 0.15625 3.71875 -0.78125 C 2.601562 -1.71875 2.046875 -2.992188 2.046875 -4.609375 C 2.046875 -6.390625 2.679688 -7.882812 3.953125 -9.09375 C 5.234375 -10.3125 6.894531 -11.210938 8.9375 -11.796875 C 10.976562 -12.378906 13.128906 -12.671875 15.390625 -12.671875 L 15.390625 -15.6875 C 15.390625 -17.5 14.835938 -18.960938 13.734375 -20.078125 C 12.640625 -21.191406 11.140625 -21.75 9.234375 -21.75 C 7.835938 -21.75 6.597656 -21.425781 5.515625 -20.78125 C 4.429688 -20.132812 3.582031 -19.226562 2.96875 -18.0625 L 2.484375 -18.0625 C 3.023438 -20.164062 4.175781 -21.832031 5.9375 -23.0625 C 7.707031 -24.289062 9.789062 -24.90625 12.1875 -24.90625 C 15.226562 -24.90625 17.613281 -24.054688 19.34375 -22.359375 C 21.082031 -20.660156 21.953125 -18.4375 21.953125 -15.6875 L 21.953125 -3.5 C 21.953125 -2.820312 22.097656 -2.328125 22.390625 -2.015625 C 22.679688 -1.703125 23.035156 -1.546875 23.453125 -1.546875 C 24.066406 -1.546875 24.472656 -1.675781 24.671875 -1.9375 Z M 11.890625 -2.53125 C 12.898438 -2.53125 13.734375 -2.867188 14.390625 -3.546875 C 15.054688 -4.222656 15.390625 -5.03125 15.390625 -5.96875 L 15.390625 -11.5625 C 13.390625 -11.488281 11.796875 -10.984375 10.609375 -10.046875 C 9.429688 -9.109375 8.84375 -7.816406 8.84375 -6.171875 C 8.84375 -4.941406 9.132812 -4.023438 9.71875 -3.421875 C 10.300781 -2.828125 11.023438 -2.53125 11.890625 -2.53125 Z M 11.890625 -2.53125 "/></g></g></g><g fill="#001d3d" fill-opacity="1"><g transform="translate(210.041369, 278.64171)"><g/></g></g><g fill="#001d3d" fill-opacity="1"><g transform="translate(220.724863, 278.64171)"><g><path d="M 33.3125 -15.546875 C 31.5625 -15.546875 30.0625 -15.125 28.8125 -14.28125 C 27.570312 -13.4375 26.335938 -11.878906 25.109375 -9.609375 L 29.046875 -4.953125 C 30.140625 -3.585938 31.109375 -2.535156 31.953125 -1.796875 C 32.796875 -1.054688 33.441406 -0.632812 33.890625 -0.53125 L 33.890625 -0.1875 C 33.304688 0.0625 32.707031 0.257812 32.09375 0.40625 C 31.476562 0.550781 30.6875 0.625 29.71875 0.625 C 28.132812 0.625 26.742188 0.269531 25.546875 -0.4375 C 24.347656 -1.144531 23.097656 -2.257812 21.796875 -3.78125 L 21.5625 -4.078125 C 19.425781 -0.941406 16.460938 0.625 12.671875 0.625 C 10.597656 0.625 8.769531 0.210938 7.1875 -0.609375 C 5.601562 -1.429688 4.378906 -2.554688 3.515625 -3.984375 C 2.660156 -5.410156 2.234375 -7.015625 2.234375 -8.796875 C 2.234375 -10.828125 2.835938 -12.601562 4.046875 -14.125 C 5.265625 -15.65625 7.132812 -17.035156 9.65625 -18.265625 L 8.359375 -19.8125 C 7.285156 -21.070312 6.515625 -22.234375 6.046875 -23.296875 C 5.578125 -24.367188 5.34375 -25.570312 5.34375 -26.90625 C 5.34375 -29.164062 6.21875 -31.015625 7.96875 -32.453125 C 9.71875 -33.898438 12.207031 -34.625 15.4375 -34.625 C 18.414062 -34.625 20.695312 -34 22.28125 -32.75 C 23.875 -31.507812 24.671875 -29.914062 24.671875 -27.96875 C 24.671875 -26.414062 24.132812 -25.054688 23.0625 -23.890625 C 22 -22.722656 20.363281 -21.65625 18.15625 -20.6875 L 16.46875 -19.90625 L 24.375 -10.53125 C 25.414062 -13.382812 26.375 -15.578125 27.25 -17.109375 C 28.125 -18.648438 29.066406 -19.742188 30.078125 -20.390625 C 31.097656 -21.046875 32.335938 -21.375 33.796875 -21.375 L 34.28125 -21.375 L 34.28125 -15.546875 Z M 15 -33.40625 C 13.800781 -33.40625 12.804688 -33.015625 12.015625 -32.234375 C 11.222656 -31.460938 10.828125 -30.460938 10.828125 -29.234375 C 10.828125 -28.234375 11.066406 -27.257812 11.546875 -26.3125 C 12.035156 -25.375 12.71875 -24.390625 13.59375 -23.359375 L 15.640625 -20.9375 C 16.734375 -21.445312 17.617188 -22.34375 18.296875 -23.625 C 18.984375 -24.90625 19.328125 -26.304688 19.328125 -27.828125 C 19.328125 -29.578125 18.921875 -30.941406 18.109375 -31.921875 C 17.304688 -32.910156 16.269531 -33.40625 15 -33.40625 Z M 15.734375 -3.15625 C 17.742188 -3.15625 19.394531 -3.800781 20.6875 -5.09375 L 10.390625 -17.34375 C 8.804688 -15.945312 8.015625 -13.96875 8.015625 -11.40625 C 8.015625 -9.820312 8.351562 -8.398438 9.03125 -7.140625 C 9.707031 -5.878906 10.632812 -4.898438 11.8125 -4.203125 C 13 -3.503906 14.304688 -3.15625 15.734375 -3.15625 Z M 15.734375 -3.15625 "/></g></g></g><g fill="#001d3d" fill-opacity="1"><g transform="translate(253.892791, 278.64171)"><g/></g></g><g fill="#001d3d" fill-opacity="1"><g transform="translate(264.576285, 278.64171)"><g><path d="M 18.0625 0.625 C 14.925781 0.625 12.125 -0.117188 9.65625 -1.609375 C 7.195312 -3.097656 5.285156 -5.144531 3.921875 -7.75 C 2.566406 -10.351562 1.890625 -13.304688 1.890625 -16.609375 C 1.890625 -20.066406 2.65625 -23.164062 4.1875 -25.90625 C 5.726562 -28.644531 7.859375 -30.78125 10.578125 -32.3125 C 13.304688 -33.851562 16.367188 -34.625 19.765625 -34.625 C 21.804688 -34.625 23.738281 -34.394531 25.5625 -33.9375 C 27.394531 -33.488281 28.878906 -32.988281 30.015625 -32.4375 L 30.015625 -23.359375 L 29.53125 -23.359375 C 28.59375 -26.171875 27.101562 -28.507812 25.0625 -30.375 C 23.019531 -32.238281 20.6875 -33.171875 18.0625 -33.171875 C 16.125 -33.171875 14.414062 -32.644531 12.9375 -31.59375 C 11.46875 -30.539062 10.316406 -29.015625 9.484375 -27.015625 C 8.660156 -25.023438 8.25 -22.65625 8.25 -19.90625 C 8.25 -17 8.800781 -14.378906 9.90625 -12.046875 C 11.007812 -9.710938 12.539062 -7.875 14.5 -6.53125 C 16.457031 -5.1875 18.679688 -4.515625 21.171875 -4.515625 C 23.441406 -4.515625 25.425781 -5.085938 27.125 -6.234375 C 28.820312 -7.390625 30.1875 -9.066406 31.21875 -11.265625 L 31.71875 -11.265625 C 31.351562 -8.992188 30.5625 -6.960938 29.34375 -5.171875 C 28.132812 -3.378906 26.566406 -1.960938 24.640625 -0.921875 C 22.710938 0.109375 20.519531 0.625 18.0625 0.625 Z M 18.0625 0.625 "/></g></g></g><g fill="#001d3d" fill-opacity="1"><g transform="translate(295.656033, 278.64171)"><g><path d="M 14.125 0.625 C 11.726562 0.625 9.59375 0.078125 7.71875 -1.015625 C 5.84375 -2.117188 4.378906 -3.632812 3.328125 -5.5625 C 2.273438 -7.488281 1.75 -9.679688 1.75 -12.140625 C 1.75 -14.597656 2.273438 -16.789062 3.328125 -18.71875 C 4.378906 -20.644531 5.84375 -22.15625 7.71875 -23.25 C 9.59375 -24.351562 11.726562 -24.90625 14.125 -24.90625 C 16.488281 -24.90625 18.609375 -24.351562 20.484375 -23.25 C 22.367188 -22.15625 23.835938 -20.644531 24.890625 -18.71875 C 25.941406 -16.789062 26.46875 -14.597656 26.46875 -12.140625 C 26.46875 -9.679688 25.941406 -7.488281 24.890625 -5.5625 C 23.835938 -3.632812 22.367188 -2.117188 20.484375 -1.015625 C 18.609375 0.078125 16.488281 0.625 14.125 0.625 Z M 14.125 -0.484375 C 15.90625 -0.484375 17.234375 -1.539062 18.109375 -3.65625 C 18.984375 -5.78125 19.421875 -8.609375 19.421875 -12.140625 C 19.421875 -15.671875 18.984375 -18.492188 18.109375 -20.609375 C 17.234375 -22.734375 15.90625 -23.796875 14.125 -23.796875 C 12.34375 -23.796875 11.007812 -22.734375 10.125 -20.609375 C 9.238281 -18.492188 8.796875 -15.671875 8.796875 -12.140625 C 8.796875 -8.609375 9.238281 -5.78125 10.125 -3.65625 C 11.007812 -1.539062 12.34375 -0.484375 14.125 -0.484375 Z M 14.125 -0.484375 "/></g></g></g><g fill="#001d3d" fill-opacity="1"><g transform="translate(322.413691, 278.64171)"><g><path d="M 5.875 0.484375 C 4.769531 0.484375 3.863281 0.128906 3.15625 -0.578125 C 2.445312 -1.296875 2.09375 -2.1875 2.09375 -3.25 C 2.09375 -4.351562 2.445312 -5.257812 3.15625 -5.96875 C 3.863281 -6.6875 4.769531 -7.046875 5.875 -7.046875 C 6.945312 -7.046875 7.835938 -6.6875 8.546875 -5.96875 C 9.253906 -5.257812 9.609375 -4.351562 9.609375 -3.25 C 9.609375 -2.1875 9.253906 -1.296875 8.546875 -0.578125 C 7.835938 0.128906 6.945312 0.484375 5.875 0.484375 Z M 5.875 0.484375 "/></g></g></g><g fill="#545454" fill-opacity="1"><g transform="translate(131.096333, 301.430488)"><g><path d="M 1.140625 -0.078125 C 1.515625 -0.585938 1.703125 -1.269531 1.703125 -2.125 L 1.703125 -9.203125 C 1.703125 -10.054688 1.515625 -10.738281 1.140625 -11.25 L 1.140625 -11.328125 L 4.609375 -11.328125 L 4.609375 -11.25 C 4.234375 -10.738281 4.046875 -10.054688 4.046875 -9.203125 L 4.046875 -6.03125 L 8.8125 -6.03125 L 8.8125 -9.203125 C 8.8125 -10.054688 8.617188 -10.738281 8.234375 -11.25 L 8.234375 -11.328125 L 11.71875 -11.328125 L 11.71875 -11.25 C 11.34375 -10.738281 11.15625 -10.054688 11.15625 -9.203125 L 11.15625 -2.125 C 11.15625 -1.269531 11.34375 -0.585938 11.71875 -0.078125 L 11.71875 0 L 8.234375 0 L 8.234375 -0.078125 C 8.617188 -0.585938 8.8125 -1.269531 8.8125 -2.125 L 8.8125 -5.640625 L 4.046875 -5.640625 L 4.046875 -2.125 C 4.046875 -1.269531 4.234375 -0.585938 4.609375 -0.078125 L 4.609375 0 L 1.140625 0 Z M 1.140625 -0.078125 "/></g></g></g><g fill="#545454" fill-opacity="1"><g transform="translate(150.828847, 301.430488)"><g><path d="M 6.1875 0.203125 C 5.070312 0.203125 4.09375 -0.0351562 3.25 -0.515625 C 2.414062 -1.003906 1.769531 -1.691406 1.3125 -2.578125 C 0.851562 -3.472656 0.625 -4.503906 0.625 -5.671875 C 0.625 -6.828125 0.851562 -7.847656 1.3125 -8.734375 C 1.769531 -9.628906 2.414062 -10.320312 3.25 -10.8125 C 4.09375 -11.300781 5.070312 -11.546875 6.1875 -11.546875 C 7.289062 -11.546875 8.257812 -11.300781 9.09375 -10.8125 C 9.9375 -10.320312 10.585938 -9.628906 11.046875 -8.734375 C 11.503906 -7.847656 11.734375 -6.828125 11.734375 -5.671875 C 11.734375 -4.503906 11.503906 -3.472656 11.046875 -2.578125 C 10.585938 -1.691406 9.9375 -1.003906 9.09375 -0.515625 C 8.257812 -0.0351562 7.289062 0.203125 6.1875 0.203125 Z M 6.1875 -0.203125 C 6.820312 -0.203125 7.367188 -0.429688 7.828125 -0.890625 C 8.285156 -1.359375 8.632812 -2 8.875 -2.8125 C 9.113281 -3.632812 9.234375 -4.585938 9.234375 -5.671875 C 9.234375 -6.742188 9.113281 -7.691406 8.875 -8.515625 C 8.632812 -9.335938 8.285156 -9.976562 7.828125 -10.4375 C 7.367188 -10.894531 6.820312 -11.125 6.1875 -11.125 C 5.5625 -11.125 5.019531 -10.894531 4.5625 -10.4375 C 4.101562 -9.976562 3.75 -9.335938 3.5 -8.515625 C 3.257812 -7.691406 3.140625 -6.742188 3.140625 -5.671875 C 3.140625 -4.585938 3.257812 -3.632812 3.5 -2.8125 C 3.75 -2 4.101562 -1.359375 4.5625 -0.890625 C 5.019531 -0.429688 5.5625 -0.203125 6.1875 -0.203125 Z M 6.1875 -0.203125 "/></g></g></g><g fill="#545454" fill-opacity="1"><g transform="translate(170.075845, 301.430488)"><g><path d="M 3.671875 -0.078125 C 4.046875 -0.585938 4.234375 -1.269531 4.234375 -2.125 L 4.234375 -10.921875 L 3.640625 -10.921875 C 2.804688 -10.921875 2.109375 -10.675781 1.546875 -10.1875 C 0.992188 -9.695312 0.515625 -9 0.109375 -8.09375 L -0.046875 -8.09375 L 0.359375 -11.328125 L 10.484375 -11.328125 L 10.875 -8.09375 L 10.71875 -8.09375 C 10.332031 -9 9.859375 -9.695312 9.296875 -10.1875 C 8.734375 -10.675781 8.03125 -10.921875 7.1875 -10.921875 L 6.59375 -10.921875 L 6.59375 -2.125 C 6.59375 -1.269531 6.78125 -0.585938 7.15625 -0.078125 L 7.15625 0 L 3.671875 0 Z M 3.671875 -0.078125 "/></g></g></g><g fill="#545454" fill-opacity="1"><g transform="translate(187.78541, 301.430488)"><g><path d="M 1.140625 -0.078125 C 1.515625 -0.585938 1.703125 -1.269531 1.703125 -2.125 L 1.703125 -9.203125 C 1.703125 -10.054688 1.515625 -10.738281 1.140625 -11.25 L 1.140625 -11.328125 L 9.078125 -11.328125 L 9.484375 -8.234375 L 9.328125 -8.234375 C 8.929688 -9.128906 8.453125 -9.800781 7.890625 -10.25 C 7.328125 -10.695312 6.519531 -10.921875 5.46875 -10.921875 L 4.046875 -10.921875 L 4.046875 -5.90625 L 5.484375 -5.90625 C 6.097656 -5.90625 6.582031 -6.050781 6.9375 -6.34375 C 7.289062 -6.632812 7.539062 -7.054688 7.6875 -7.609375 L 7.84375 -7.609375 L 7.84375 -3.796875 L 7.6875 -3.796875 C 7.539062 -4.347656 7.289062 -4.769531 6.9375 -5.0625 C 6.582031 -5.351562 6.097656 -5.5 5.484375 -5.5 L 4.046875 -5.5 L 4.046875 -0.40625 L 5.828125 -0.40625 C 6.867188 -0.40625 7.671875 -0.628906 8.234375 -1.078125 C 8.804688 -1.523438 9.289062 -2.195312 9.6875 -3.09375 L 9.84375 -3.09375 L 9.4375 0 L 1.140625 0 Z M 1.140625 -0.078125 "/></g></g></g><g fill="#545454" fill-opacity="1"><g transform="translate(205.009471, 301.430488)"><g><path d="M 1.140625 -0.078125 C 1.515625 -0.585938 1.703125 -1.269531 1.703125 -2.125 L 1.703125 -9.203125 C 1.703125 -10.054688 1.515625 -10.738281 1.140625 -11.25 L 1.140625 -11.328125 L 4.609375 -11.328125 L 4.609375 -11.25 C 4.234375 -10.738281 4.046875 -10.054688 4.046875 -9.203125 L 4.046875 -0.40625 L 5.671875 -0.40625 C 6.390625 -0.40625 6.988281 -0.515625 7.46875 -0.734375 C 7.945312 -0.953125 8.335938 -1.257812 8.640625 -1.65625 C 8.953125 -2.050781 9.242188 -2.5625 9.515625 -3.1875 L 9.6875 -3.1875 L 9.28125 0 L 1.140625 0 Z M 1.140625 -0.078125 "/></g></g></g><g fill="#545454" fill-opacity="1"><g transform="translate(221.424354, 301.430488)"><g/></g></g><g fill="#545454" fill-opacity="1"><g transform="translate(232.353009, 301.430488)"><g><path d="M 11.109375 -5.1875 C 10.523438 -5.1875 10.023438 -5.046875 9.609375 -4.765625 C 9.191406 -4.484375 8.78125 -3.960938 8.375 -3.203125 L 9.6875 -1.65625 C 10.050781 -1.195312 10.375 -0.84375 10.65625 -0.59375 C 10.9375 -0.351562 11.148438 -0.210938 11.296875 -0.171875 L 11.296875 -0.0625 C 11.097656 0.0195312 10.894531 0.0820312 10.6875 0.125 C 10.488281 0.175781 10.226562 0.203125 9.90625 0.203125 C 9.375 0.203125 8.910156 0.0859375 8.515625 -0.140625 C 8.117188 -0.378906 7.703125 -0.753906 7.265625 -1.265625 L 7.1875 -1.359375 C 6.476562 -0.316406 5.488281 0.203125 4.21875 0.203125 C 3.53125 0.203125 2.921875 0.0664062 2.390625 -0.203125 C 1.867188 -0.472656 1.460938 -0.847656 1.171875 -1.328125 C 0.890625 -1.804688 0.75 -2.34375 0.75 -2.9375 C 0.75 -3.613281 0.945312 -4.203125 1.34375 -4.703125 C 1.75 -5.210938 2.375 -5.675781 3.21875 -6.09375 L 2.78125 -6.609375 C 2.425781 -7.023438 2.171875 -7.410156 2.015625 -7.765625 C 1.859375 -8.117188 1.78125 -8.519531 1.78125 -8.96875 C 1.78125 -9.71875 2.070312 -10.332031 2.65625 -10.8125 C 3.238281 -11.300781 4.066406 -11.546875 5.140625 -11.546875 C 6.140625 -11.546875 6.898438 -11.335938 7.421875 -10.921875 C 7.953125 -10.503906 8.21875 -9.972656 8.21875 -9.328125 C 8.21875 -8.804688 8.039062 -8.347656 7.6875 -7.953125 C 7.332031 -7.566406 6.785156 -7.210938 6.046875 -6.890625 L 5.484375 -6.640625 L 8.125 -3.515625 C 8.46875 -4.460938 8.785156 -5.191406 9.078125 -5.703125 C 9.367188 -6.210938 9.679688 -6.578125 10.015625 -6.796875 C 10.359375 -7.015625 10.773438 -7.125 11.265625 -7.125 L 11.421875 -7.125 L 11.421875 -5.1875 Z M 5 -11.140625 C 4.601562 -11.140625 4.269531 -11.007812 4 -10.75 C 3.738281 -10.488281 3.609375 -10.15625 3.609375 -9.75 C 3.609375 -9.414062 3.6875 -9.085938 3.84375 -8.765625 C 4.007812 -8.453125 4.238281 -8.125 4.53125 -7.78125 L 5.21875 -6.984375 C 5.582031 -7.148438 5.875 -7.445312 6.09375 -7.875 C 6.320312 -8.300781 6.4375 -8.769531 6.4375 -9.28125 C 6.4375 -9.863281 6.300781 -10.316406 6.03125 -10.640625 C 5.769531 -10.972656 5.425781 -11.140625 5 -11.140625 Z M 5.25 -1.046875 C 5.914062 -1.046875 6.460938 -1.265625 6.890625 -1.703125 L 3.46875 -5.78125 C 2.9375 -5.3125 2.671875 -4.648438 2.671875 -3.796875 C 2.671875 -3.273438 2.78125 -2.800781 3 -2.375 C 3.226562 -1.957031 3.539062 -1.628906 3.9375 -1.390625 C 4.332031 -1.160156 4.769531 -1.046875 5.25 -1.046875 Z M 5.25 -1.046875 "/></g></g></g><g fill="#545454" fill-opacity="1"><g transform="translate(138.010395, 323.930487)"><g><path d="M 3.671875 -0.078125 C 4.046875 -0.585938 4.234375 -1.269531 4.234375 -2.125 L 4.234375 -10.921875 L 3.640625 -10.921875 C 2.804688 -10.921875 2.109375 -10.675781 1.546875 -10.1875 C 0.992188 -9.695312 0.515625 -9 0.109375 -8.09375 L -0.046875 -8.09375 L 0.359375 -11.328125 L 10.484375 -11.328125 L 10.875 -8.09375 L 10.71875 -8.09375 C 10.332031 -9 9.859375 -9.695312 9.296875 -10.1875 C 8.734375 -10.675781 8.03125 -10.921875 7.1875 -10.921875 L 6.59375 -10.921875 L 6.59375 -2.125 C 6.59375 -1.269531 6.78125 -0.585938 7.15625 -0.078125 L 7.15625 0 L 3.671875 0 Z M 3.671875 -0.078125 "/></g></g></g><g fill="#545454" fill-opacity="1"><g transform="translate(155.71996, 323.930487)"><g><path d="M 9.984375 0.125 C 9.304688 0.125 8.753906 -0.03125 8.328125 -0.34375 C 7.910156 -0.664062 7.59375 -1.046875 7.375 -1.484375 C 7.164062 -1.921875 6.945312 -2.476562 6.71875 -3.15625 C 6.550781 -3.644531 6.40625 -4.03125 6.28125 -4.3125 C 6.164062 -4.601562 6.003906 -4.84375 5.796875 -5.03125 C 5.585938 -5.21875 5.328125 -5.3125 5.015625 -5.3125 L 4.046875 -5.3125 L 4.046875 -2.125 C 4.046875 -1.269531 4.234375 -0.585938 4.609375 -0.078125 L 4.609375 0 L 1.140625 0 L 1.140625 -0.078125 C 1.515625 -0.585938 1.703125 -1.269531 1.703125 -2.125 L 1.703125 -9.203125 C 1.703125 -10.054688 1.515625 -10.738281 1.140625 -11.25 L 1.140625 -11.328125 L 5.765625 -11.328125 C 6.992188 -11.328125 8.019531 -11.085938 8.84375 -10.609375 C 9.675781 -10.140625 10.09375 -9.382812 10.09375 -8.34375 C 10.09375 -7.75 9.9375 -7.238281 9.625 -6.8125 C 9.3125 -6.394531 8.90625 -6.070312 8.40625 -5.84375 C 7.914062 -5.625 7.398438 -5.5 6.859375 -5.46875 L 6.859375 -5.40625 C 7.398438 -5.382812 7.859375 -5.234375 8.234375 -4.953125 C 8.609375 -4.671875 8.90625 -4.328125 9.125 -3.921875 C 9.34375 -3.523438 9.554688 -3.050781 9.765625 -2.5 C 9.992188 -1.832031 10.207031 -1.332031 10.40625 -1 C 10.613281 -0.664062 10.863281 -0.5 11.15625 -0.5 C 11.34375 -0.5 11.503906 -0.566406 11.640625 -0.703125 L 11.765625 -0.578125 C 11.628906 -0.359375 11.394531 -0.1875 11.0625 -0.0625 C 10.738281 0.0625 10.378906 0.125 9.984375 0.125 Z M 5.453125 -5.71875 C 6.148438 -5.71875 6.691406 -5.953125 7.078125 -6.421875 C 7.472656 -6.890625 7.671875 -7.53125 7.671875 -8.34375 C 7.671875 -9.144531 7.46875 -9.773438 7.0625 -10.234375 C 6.664062 -10.703125 6.109375 -10.9375 5.390625 -10.9375 C 4.898438 -10.9375 4.453125 -10.859375 4.046875 -10.703125 L 4.046875 -5.71875 Z M 5.453125 -5.71875 "/></g></g></g><g fill="#545454" fill-opacity="1"><g transform="translate(174.271066, 323.930487)"><g><path d="M -0.09375 -0.078125 C 0.519531 -0.597656 0.992188 -1.273438 1.328125 -2.109375 L 4.96875 -11.328125 L 6.296875 -11.328125 L 9.90625 -2.15625 C 10.09375 -1.6875 10.273438 -1.296875 10.453125 -0.984375 C 10.640625 -0.679688 10.875 -0.378906 11.15625 -0.078125 L 11.15625 0 L 7.140625 0 L 7.140625 -0.078125 C 7.421875 -0.429688 7.5625 -0.832031 7.5625 -1.28125 C 7.5625 -1.59375 7.5 -1.890625 7.375 -2.171875 L 6.734375 -3.78125 L 2.5 -3.78125 L 1.890625 -2.28125 C 1.773438 -2 1.71875 -1.710938 1.71875 -1.421875 C 1.71875 -0.890625 1.910156 -0.441406 2.296875 -0.078125 L 2.296875 0 L -0.09375 0 Z M 4.609375 -9.265625 L 2.640625 -4.1875 L 6.59375 -4.1875 Z M 4.609375 -9.265625 "/></g></g></g><g fill="#545454" fill-opacity="1"><g transform="translate(192.369032, 323.930487)"><g><path d="M 1.265625 -9.171875 C 1.085938 -9.640625 0.910156 -10.023438 0.734375 -10.328125 C 0.566406 -10.640625 0.34375 -10.945312 0.0625 -11.25 L 0.0625 -11.328125 L 4.078125 -11.328125 L 4.078125 -11.25 C 3.773438 -10.894531 3.625 -10.484375 3.625 -10.015625 C 3.625 -9.722656 3.679688 -9.425781 3.796875 -9.125 L 6.421875 -2.125 L 9 -8.953125 C 9.15625 -9.367188 9.234375 -9.71875 9.234375 -10 C 9.234375 -10.46875 9.046875 -10.882812 8.671875 -11.25 L 8.671875 -11.328125 L 11.078125 -11.328125 L 11.078125 -11.25 C 10.398438 -10.695312 9.898438 -10 9.578125 -9.15625 L 6.09375 0 L 4.765625 0 Z M 1.265625 -9.171875 "/></g></g></g><g fill="#545454" fill-opacity="1"><g transform="translate(210.224246, 323.930487)"><g><path d="M 1.140625 -0.078125 C 1.515625 -0.585938 1.703125 -1.269531 1.703125 -2.125 L 1.703125 -9.203125 C 1.703125 -10.054688 1.515625 -10.738281 1.140625 -11.25 L 1.140625 -11.328125 L 9.078125 -11.328125 L 9.484375 -8.234375 L 9.328125 -8.234375 C 8.929688 -9.128906 8.453125 -9.800781 7.890625 -10.25 C 7.328125 -10.695312 6.519531 -10.921875 5.46875 -10.921875 L 4.046875 -10.921875 L 4.046875 -5.90625 L 5.484375 -5.90625 C 6.097656 -5.90625 6.582031 -6.050781 6.9375 -6.34375 C 7.289062 -6.632812 7.539062 -7.054688 7.6875 -7.609375 L 7.84375 -7.609375 L 7.84375 -3.796875 L 7.6875 -3.796875 C 7.539062 -4.347656 7.289062 -4.769531 6.9375 -5.0625 C 6.582031 -5.351562 6.097656 -5.5 5.484375 -5.5 L 4.046875 -5.5 L 4.046875 -0.40625 L 5.828125 -0.40625 C 6.867188 -0.40625 7.671875 -0.628906 8.234375 -1.078125 C 8.804688 -1.523438 9.289062 -2.195312 9.6875 -3.09375 L 9.84375 -3.09375 L 9.4375 0 L 1.140625 0 Z M 1.140625 -0.078125 "/></g></g></g><g fill="#545454" fill-opacity="1"><g transform="translate(227.448307, 323.930487)"><g><path d="M 1.140625 -0.078125 C 1.515625 -0.585938 1.703125 -1.269531 1.703125 -2.125 L 1.703125 -9.203125 C 1.703125 -10.054688 1.515625 -10.738281 1.140625 -11.25 L 1.140625 -11.328125 L 4.609375 -11.328125 L 4.609375 -11.25 C 4.234375 -10.738281 4.046875 -10.054688 4.046875 -9.203125 L 4.046875 -0.40625 L 5.671875 -0.40625 C 6.390625 -0.40625 6.988281 -0.515625 7.46875 -0.734375 C 7.945312 -0.953125 8.335938 -1.257812 8.640625 -1.65625 C 8.953125 -2.050781 9.242188 -2.5625 9.515625 -3.1875 L 9.6875 -3.1875 L 9.28125 0 L 1.140625 0 Z M 1.140625 -0.078125 "/></g></g></g></svg>